<?xml version="1.0" encoding="iso-8859-1"?>
<!-- Generator: Adobe Illustrator 19.2.1, SVG Export Plug-In . SVG Version: 6.00 Build 0)  -->
<svg version="1.1" id="pagekit-logo" xmlns="http://www.w3.org/2000/svg" xmlns:xlink="http://www.w3.org/1999/xlink" x="0px"
	 y="0px" width="198.438px" height="50px" viewBox="0 0 198.438 50" style="enable-background:new 0 0 198.438 50;"
	 xml:space="preserve">
<g id="LOGO">
	<g style="display:none;">
		<g id="FX_1_" style="display:inline;">
			<g>
				<path style="fill:#009D65;" d="M-8.9,39.2h-10l-13.3-14.1l-13.4,14.1h-9.3l17.6-17.9L-49.1,7l4.9-2.4l12.3,13.1l12.3-13.1h9.3
					l-16.6,16.7L-8.9,39.2z"/>
			</g>
			<rect x="-71.1" y="4.7" style="fill:#009D65;" width="26.9" height="6.9"/>
			<polygon style="fill:#009D65;" points="-63.4,46.7 -70.8,46.7 -70.8,17.5 -43.9,17.5 -47.3,21 -63.1,20.9 			"/>
			<polygon style="fill:#00834F;" points="-43.9,17.2 -70.8,17.2 -70.8,15.9 -45,15.9 			"/>
		</g>
		<g id="safe_area" style="display:inline;">
			<polygon style="fill:#474144;" points="-7.4,1.3 -7.4,2.2 -3.8,2.2 -3.8,5.9 -2.9,5.9 -2.9,2.2 -2.9,1.4 -2.9,1.3 			"/>
			<polygon style="fill:#474144;" points="-2.9,37.8 -3.8,37.8 -3.8,41.4 -7.4,41.4 -7.4,42.3 -3.8,42.3 -2.9,42.3 -2.9,42.3 			"/>
			<polygon style="fill:#474144;" points="-73.2,42.3 -73.2,41.5 -76.9,41.5 -76.9,37.7 -77.7,37.7 -77.7,41.5 -77.7,42.3 
				-77.7,42.3 			"/>
			<polygon style="fill:#474144;" points="-77.8,5.8 -76.9,5.8 -76.9,2.2 -73.2,2.2 -73.2,1.4 -76.9,1.4 -77.7,1.4 -77.8,1.4 			"/>
		</g>
	</g>
	<g id="text_x5F_tecno_x5F_fx">
		<g>
			<path style="fill:#474144;" d="M11.8,36.7V15.2H4.3v-3.7h18.8v3.7h-7.6v21.5H11.8z"/>
			<path style="fill:#474144;" d="M28.2,33h11.7v3.6H24.6v-25h15.3v3.6H28.2v7.1h11.3V26H28.2V33z"/>
			<path style="fill:#474144;" d="M44.6,15.1c2.2-2.2,5.3-3.7,8.7-3.7c5.7,0,10.3,3.6,11.7,9.3h-3.6C60.1,16.9,57,15,53.3,15
				c-2.4,0-4.6,1.1-6.2,2.7c-1.6,1.6-2.5,3.9-2.5,6.5c0,2.5,1,4.8,2.5,6.4s3.8,2.7,6.2,2.7c3.8,0,7.1-2.2,8.3-6H65
				c-1.4,5.7-6,9.6-11.8,9.6c-3.4,0-6.5-1.4-8.7-3.7c-2.1-2.3-3.6-5.4-3.6-8.9C41,20.6,42.4,17.4,44.6,15.1z"/>
			<path style="fill:#474144;" d="M66.9,36.6V11.5h2.8l12.2,17.6V11.5h3.6v25.1h-2.9L70.5,19v17.6C70.5,36.6,66.9,36.6,66.9,36.6z"
				/>
			<path style="fill:#474144;" d="M91.1,15c2.3-2.3,5.5-3.8,9-3.8s6.7,1.5,9,3.8c2.2,2.3,3.7,5.5,3.7,9s-1.5,6.7-3.7,9
				c-2.3,2.4-5.5,3.8-9,3.8s-6.7-1.4-9-3.8c-2.2-2.3-3.7-5.5-3.7-9S88.8,17.3,91.1,15z M106.6,17.6c-1.7-1.7-4-2.7-6.5-2.7
				s-4.8,1.1-6.4,2.7S91,21.5,91,24s1.1,4.8,2.7,6.5s3.9,2.7,6.4,2.7s4.8-1.1,6.5-2.7c1.6-1.6,2.6-3.9,2.6-6.5
				S108.1,19.2,106.6,17.6z"/>
		</g>
	</g>
</g>
<g>
	<g id="FX_2_">
		<rect x="125" y="4.7" style="fill:#009460;" width="27.1" height="7.2"/>
		<polygon style="fill:#009460;" points="132.3,48.7 125,48.7 125,19.3 152.2,19.3 146.6,25 132.3,24.9 		"/>
		<polygon style="fill:#007D4C;" points="152.2,19 125,19 125,17.6 151,17.6 		"/>
	</g>
</g>
<polygon style="fill:#009460;" points="152.7,4.7 142.7,4.7 177.3,39.5 187.4,39.5 "/>
<polygon style="fill:#009460;" points="176.4,4.7 186.5,4.7 151.9,39.5 141.9,39.5 "/>
<g id="safe_area_1_">
	<polygon style="fill:#474144;" points="188.8,1.3 188.8,2.1 192.5,2.1 192.5,5.8 193.3,5.8 193.3,2.1 193.3,1.3 193.3,1.3 	"/>
	<polygon style="fill:#474144;" points="193.3,37.7 192.5,37.7 192.5,41.4 188.8,41.4 188.8,42.3 192.5,42.3 193.3,42.3 193.3,42.3 
			"/>
	<polygon style="fill:#474144;" points="123.1,42.3 123.1,41.4 119.4,41.4 119.4,37.7 118.6,37.7 118.6,41.4 118.6,42.3 118.6,42.3 
			"/>
	<polygon style="fill:#474144;" points="118.6,5.8 119.4,5.8 119.4,2.1 123.1,2.1 123.1,1.3 119.4,1.3 118.6,1.3 118.6,1.3 	"/>
</g>
</svg>
